# xmcd
#
# Track frame offsets: 
#        150
#        17600
#        30195
#        45435
#        69507
#        85377
#        106137
#        125412
#        135190
#        157395
#
# Disc length: 2361 seconds
#
# Revision: 7
# Processed by: cddbd v1.5.2PL0 Copyright (c) Steve Scherf et al.
# Submitted via: ExactAudioCopy v1.3
#
DISCID=7309370a
DTITLE=Various Artist - A Celebration of Blues- Great Acoustic Blues
DYEAR=1996
DGENRE=Blues
TTITLE0=Buddy Guy with Junior Wells - Give Me My Coat and Shoes
TTITLE1=John Hammond - Mr. Luck
TTITLE2=Sonny Boy Williamson - The Sky Is Crying
TTITLE3=Nappy Brown with Bob Margolin - Worried Life Blues
TTITLE4=Paul James - I'm a Real Kingfisher
TTITLE5=Johnny Winter - Bad Girl Blues
TTITLE6=Jimmy Witherspoon - I'll Always Be In Love With You
TTITLE7=Ronnie Earl - Blues For Robert Jr.
TTITLE8=Lonny Mack with Stevie Ray Vaughan - Oreo Cookie Blues
TTITLE9=George Thorogood - Kind Hearted Woman
EXTD=LABEL =St-Clair Entertainment Group Inc.\nID =CBL25162\nUPC =7
EXTD=77966-251622\nCOPYRIGHT =1996
EXTT0=Buddy Guy with Junior Wells
EXTT1=John Hammond
EXTT2=Sonny Boy Williamson
EXTT3=Nappy Brown with Bob Margolin
EXTT4=Paul James
EXTT5=Jonny Winter
EXTT6=Jimmy Witherspoon
EXTT7=Ronnie Earl
EXTT8=Lonnie Mack with Stevie Ray Vaughan
EXTT9=George Thorogood
PLAYORDER=
